<?xml version="1.0" standalone="no"?>
<!DOCTYPE svg PUBLIC "-//W3C//DTD SVG 20010904//EN"
 "http://www.w3.org/TR/2001/REC-SVG-20010904/DTD/svg10.dtd">
<svg version="1.0" xmlns="http://www.w3.org/2000/svg"
 width="260.000000pt" height="260.000000pt" viewBox="0 0 260.000000 260.000000"
 preserveAspectRatio="xMidYMid meet">
<metadata>
Created by potrace 1.14, written by Peter Selinger 2001-2017
</metadata>
<g transform="translate(0.000000,260.000000) scale(0.100000,-0.100000)"
fill="#000000" stroke="none">
<path d="M830 2561 c0 -6 4 -13 10 -16 6 -3 7 1 4 9 -7 18 -14 21 -14 7z"/>
<path d="M1553 2555 c0 -8 4 -12 9 -9 5 3 6 10 3 15 -9 13 -12 11 -12 -6z"/>
<path d="M1876 2553 c-6 -14 -5 -15 5 -6 7 7 10 15 7 18 -3 3 -9 -2 -12 -12z"/>
<path d="M1989 2543 c-13 -16 -12 -17 4 -4 9 7 17 15 17 17 0 8 -8 3 -21 -13z"/>
<path d="M730 2539 c0 -5 5 -7 10 -4 6 3 10 8 10 11 0 2 -4 4 -10 4 -5 0 -10
-5 -10 -11z"/>
<path d="M1054 2537 c4 -12 -1 -21 -17 -27 -15 -6 -17 -9 -6 -9 25 -1 40 21
27 39 -8 12 -9 12 -4 -3z"/>
<path d="M1175 2541 c-3 -5 -2 -12 3 -15 5 -3 9 1 9 9 0 17 -3 19 -12 6z"/>
<path d="M1419 2548 c-5 -18 -6 -38 -1 -34 7 8 12 36 6 36 -2 0 -4 -1 -5 -2z"/>
<path d="M1615 2541 c-3 -5 -2 -12 3 -15 5 -3 9 1 9 9 0 17 -3 19 -12 6z"/>
<path d="M1706 2542 c-2 -4 4 -8 14 -8 10 0 16 4 14 8 -3 4 -9 8 -14 8 -5 0
-11 -4 -14 -8z"/>
<path d="M1814 2533 c2 -9 8 -18 15 -19 6 -1 7 0 1 3 -5 2 -8 9 -5 13 3 5 1
11 -4 14 -5 4 -8 -2 -7 -11z"/>
<path d="M1120 2528 c6 -7 10 -15 10 -19 0 -9 -27 -6 -36 4 -10 9 -35 -13 -28
-24 6 -10 -27 -6 -58 6 -14 5 -18 2 -18 -13 0 -12 -4 -24 -10 -27 -6 -4 -9 4
-7 17 1 18 -3 23 -20 22 -13 -1 -23 3 -23 8 0 6 -6 8 -14 5 -7 -3 -20 0 -27 6
-11 10 -11 9 0 -5 11 -15 11 -18 -3 -18 -9 0 -16 4 -16 9 0 4 -10 8 -22 7 -13
-1 -34 5 -48 12 l-25 14 25 -21 c20 -16 21 -21 8 -21 -9 0 -19 4 -22 8 -3 5
-15 8 -28 7 -13 -1 -29 3 -37 9 -11 8 -13 8 -8 -1 4 -6 1 -14 -5 -17 -7 -3 0
-3 15 -1 20 3 27 0 24 -9 -3 -7 1 -13 9 -13 7 0 10 5 7 11 -3 6 -1 6 7 -1 7
-6 19 -9 28 -6 9 4 13 1 11 -6 -3 -7 -8 -12 -13 -11 -5 1 -13 -5 -18 -14 -10
-18 -28 -21 -28 -5 0 5 5 7 10 4 6 -3 10 -2 10 4 0 24 -20 19 -43 -10 -18 -23
-27 -28 -32 -19 -5 9 -4 11 3 6 7 -4 12 -3 12 2 0 6 -6 12 -14 15 -17 7 -28
-17 -14 -31 6 -6 6 -12 -1 -17 -7 -4 -10 -1 -9 7 2 7 -6 13 -17 13 -11 0 -26
4 -32 8 -8 5 -13 4 -13 -2 0 -6 5 -11 11 -11 5 0 7 -5 4 -10 -5 -8 -11 -7 -21
1 -8 7 -14 7 -14 1 0 -5 8 -13 17 -16 15 -6 15 -8 3 -16 -9 -5 -19 -5 -27 1
-9 8 -11 5 -8 -11 2 -13 7 -25 10 -28 8 -9 -17 -32 -28 -25 -6 3 -7 1 -3 -5 4
-7 16 -17 28 -23 16 -9 19 -8 13 2 -5 7 -4 10 2 6 5 -3 10 1 10 9 0 10 -4 11
-11 4 -5 -5 -15 -10 -20 -10 -6 1 -1 9 12 19 15 13 18 21 10 24 -10 4 -11 7 0
18 10 11 12 10 12 -4 0 -9 -1 -19 -2 -20 -2 -2 3 -11 10 -20 11 -13 10 -18 -8
-35 -21 -19 -21 -21 -3 -31 10 -6 13 -11 6 -12 -40 -5 -62 -19 -60 -39 1 -13
5 -16 13 -9 8 6 14 5 18 -6 5 -13 10 -14 28 -5 21 11 21 10 -2 -8 -22 -18 -23
-22 -10 -39 13 -16 13 -17 -1 -6 -9 7 -18 10 -21 8 -3 -3 -4 6 -3 20 3 22 1
24 -17 14 -15 -8 -17 -14 -8 -24 8 -9 8 -15 0 -20 -5 -3 -10 -12 -10 -18 0 -8
3 -8 9 2 5 8 11 9 15 3 3 -6 2 -13 -3 -17 -5 -3 -9 -14 -8 -25 1 -10 5 -16 9
-14 5 3 7 -8 6 -25 -1 -17 -6 -31 -10 -31 -4 0 -8 -4 -8 -9 0 -5 11 -4 24 2
13 7 22 15 19 19 -2 5 -9 5 -15 2 -6 -4 -5 3 2 16 10 18 9 24 -7 37 -10 8 -13
12 -7 9 7 -3 10 4 8 19 -2 27 3 30 26 15 13 -8 12 -10 -2 -10 -10 0 -18 -5
-18 -11 0 -5 4 -8 9 -5 4 3 7 -10 5 -30 -2 -24 2 -37 13 -41 11 -5 5 -12 -23
-31 -22 -13 -31 -22 -22 -19 21 7 45 -18 26 -27 -7 -3 -2 -3 12 1 22 5 23 4
11 -11 -12 -14 -12 -16 1 -11 8 3 21 -1 28 -9 7 -9 16 -13 21 -10 5 3 9 0 9
-6 0 -6 6 -10 13 -9 25 3 38 -1 32 -11 -3 -5 -1 -10 5 -10 7 0 9 7 6 16 -4 10
-2 13 6 8 7 -4 8 -3 4 5 -4 6 -18 9 -32 7 -16 -3 -22 -1 -18 6 4 6 3 8 -3 5
-6 -4 -16 0 -23 8 -7 8 -16 13 -20 10 -4 -2 -12 7 -19 21 -6 14 -16 22 -21 19
-6 -3 -10 -1 -10 4 0 6 7 11 15 11 8 0 15 -4 15 -10 0 -13 42 -50 51 -44 4 2
11 -1 15 -8 5 -8 10 -6 15 8 7 17 8 17 8 1 1 -10 6 -15 11 -12 6 3 10 0 10 -7
0 -10 3 -9 11 2 9 13 10 13 6 -2 -3 -9 1 -22 9 -29 8 -7 12 -19 9 -28 -5 -12
-3 -13 5 -5 6 6 13 24 15 40 5 27 4 28 -10 10 -8 -11 -15 -15 -15 -9 0 13 18
26 38 29 6 1 10 -1 7 -6 -3 -4 2 -13 9 -19 9 -8 17 -8 20 -2 3 5 0 12 -6 14
-8 4 -9 6 -2 6 12 1 41 -28 30 -30 -3 -1 -15 -3 -26 -4 -11 -1 -24 -3 -28 -4
-5 0 -9 -8 -9 -16 0 -8 3 -13 5 -10 3 3 12 -1 21 -7 13 -10 14 -10 4 2 -17 19
-16 27 2 27 8 0 15 -3 15 -7 0 -3 7 -15 16 -26 14 -18 15 -18 4 4 -7 13 -9 26
-6 30 3 3 6 2 6 -2 0 -4 9 -2 20 4 11 6 20 7 20 2 0 -6 10 -12 23 -15 22 -6
22 -6 -2 12 -14 11 -30 17 -35 15 -15 -6 -39 33 -26 41 6 4 10 3 9 -2 -4 -20
2 -24 19 -12 9 7 14 10 10 5 -8 -9 15 -36 29 -36 5 0 19 -9 31 -20 l22 -21 -5
34 c-7 41 18 59 35 26 6 -11 15 -17 20 -14 5 3 12 0 16 -6 4 -7 3 -9 -2 -6 -6
3 -11 -4 -11 -16 -2 -21 -1 -21 12 -3 10 13 11 24 4 37 -7 15 -6 17 6 13 8 -3
12 -10 9 -15 -3 -5 2 -9 10 -9 9 0 16 4 16 9 0 6 9 9 20 8 10 -1 17 -3 15 -5
-2 -3 0 -13 5 -23 7 -12 6 -20 -2 -25 -6 -4 -8 -3 -4 4 4 6 -3 9 -19 8 -13 -2
-22 1 -19 5 3 5 0 9 -5 9 -6 0 -11 -7 -11 -15 0 -9 6 -15 13 -14 27 3 38 -1
31 -13 -8 -14 24 9 39 27 5 6 6 2 3 -8 -5 -15 -2 -17 15 -12 15 5 19 4 14 -5
-4 -6 -16 -10 -26 -7 -23 6 -36 -10 -20 -26 6 -6 11 -17 11 -25 0 -9 -7 -6
-21 9 -11 13 -17 18 -13 10 5 -11 3 -13 -10 -8 -11 4 -15 3 -11 -4 4 -6 14 -8
22 -5 10 4 13 2 10 -8 -3 -8 4 -25 17 -39 l22 -24 -28 -12 c-15 -7 -28 -17
-28 -22 0 -6 5 -7 12 -3 7 4 8 3 4 -5 -4 -6 -12 -8 -18 -5 -7 5 -9 1 -5 -9 3
-9 2 -19 -4 -22 -5 -4 -6 -12 -2 -18 4 -7 -2 -5 -12 3 -17 13 -18 13 -13 -1 4
-10 1 -16 -8 -16 -12 0 -12 4 1 21 29 41 38 59 25 51 -8 -5 -11 -3 -8 5 2 7
12 14 22 16 22 3 42 21 34 29 -3 3 -13 -1 -22 -10 -14 -15 -20 -12 -17 7 0 4
-6 5 -15 1 -11 -4 -12 -8 -4 -13 9 -6 9 -9 1 -15 -7 -4 -9 -16 -5 -28 6 -19 5
-20 -8 -9 -13 10 -17 10 -21 -2 -4 -11 -1 -13 10 -9 13 5 13 2 -2 -20 -9 -15
-22 -24 -29 -20 -6 3 -8 3 -4 -2 4 -4 0 -14 -10 -22 -15 -12 -14 -13 8 -2 21
9 23 9 13 -2 -19 -20 -16 -28 10 -22 20 4 20 4 -3 -9 -14 -8 -24 -22 -24 -31
1 -9 -2 -15 -6 -12 -5 3 -11 1 -15 -5 -3 -5 -1 -10 5 -10 6 0 -5 -14 -25 -31
-33 -29 -34 -32 -18 -46 19 -16 -3 -7 -25 10 -9 7 -9 13 -1 23 6 8 15 12 19 9
4 -2 14 3 23 13 15 16 14 19 -13 34 -26 15 -28 15 -25 -1 1 -9 10 -15 20 -13
11 2 14 -1 10 -8 -4 -7 -15 -10 -25 -7 -14 3 -17 1 -13 -11 5 -11 2 -14 -10
-9 -9 3 -19 1 -23 -6 -4 -7 -4 -9 1 -5 9 9 49 -51 41 -60 -4 -3 -6 0 -6 7 0 7
-4 10 -9 6 -5 -3 -13 0 -17 6 -4 8 -3 9 4 5 18 -11 14 0 -5 15 -9 8 -14 9 -10
3 8 -14 -18 -38 -33 -29 -5 3 -10 4 -10 1 0 -3 10 -10 21 -17 13 -7 19 -7 15
-1 -3 6 -1 14 5 17 7 5 10 0 7 -11 -2 -11 -11 -18 -22 -17 -21 1 -49 -21 -39
-31 4 -3 2 -6 -4 -6 -5 0 -15 -11 -21 -25 -8 -17 -17 -23 -29 -19 -17 5 -17 5
0 -6 14 -9 15 -15 6 -31 -8 -16 -13 -18 -25 -8 -10 8 -14 8 -14 0 0 -6 5 -11
11 -11 8 0 7 -5 -2 -16 -12 -14 -14 -14 -20 3 -7 16 -8 16 -8 1 -1 -9 4 -20 9
-23 6 -4 7 -11 4 -17 -4 -7 -9 -6 -14 2 -5 8 -9 7 -13 -5 -4 -9 -3 -13 3 -10
6 3 10 2 10 -3 0 -5 -10 -12 -22 -16 -18 -5 -20 -8 -9 -15 15 -10 3 -20 -20
-16 -10 2 -16 -4 -15 -14 1 -11 -6 -15 -19 -13 -18 2 -18 1 3 -11 12 -7 20
-16 16 -20 -4 -4 -14 -1 -22 6 -12 9 -12 7 1 -14 15 -22 15 -28 3 -45 -9 -12
-11 -23 -5 -30 11 -13 -36 -13 -48 0 -5 5 -2 6 6 1 10 -5 12 -4 7 4 -5 7 -2
10 5 9 7 -2 13 3 14 10 0 7 7 17 15 22 13 8 12 10 -2 10 -10 0 -18 -5 -18 -11
0 -5 -4 -8 -9 -4 -6 3 -8 14 -6 25 2 11 0 22 -5 25 -4 3 -7 -3 -5 -12 1 -10
-5 -27 -14 -38 -15 -18 -15 -19 1 -7 11 9 18 10 23 2 3 -5 -1 -13 -10 -16 -9
-4 -14 -13 -10 -22 6 -15 -11 -42 -26 -42 -5 0 -9 8 -10 18 0 14 -2 14 -8 -3
-10 -25 -5 -36 13 -29 8 3 17 0 21 -5 3 -6 12 -9 18 -5 7 3 4 -1 -5 -9 -10 -8
-14 -18 -10 -22 4 -4 -4 -2 -18 5 -14 7 -30 20 -36 28 -9 12 -11 11 -9 -6 1
-12 4 -25 8 -28 12 -12 8 -24 -8 -24 -11 0 -14 -7 -9 -24 3 -13 1 -27 -5 -31
-6 -3 -8 -11 -5 -17 4 -6 2 -8 -4 -4 -6 3 -13 2 -17 -4 -3 -5 -1 -10 6 -10 6
0 1 -8 -11 -18 -23 -19 -20 -49 3 -36 7 4 8 3 4 -1 -11 -13 -38 -15 -31 -3 4
6 1 9 -6 6 -7 -2 -14 -12 -16 -22 -2 -12 2 -16 13 -12 13 5 14 4 3 -9 -11 -14
-14 -13 -26 2 -12 16 -13 15 -8 -9 4 -28 -9 -38 -22 -16 -4 6 -3 8 4 4 6 -3 9
1 8 11 -2 9 -9 19 -17 21 -11 3 -11 1 1 -7 14 -10 7 -16 -13 -12 -5 1 -5 -4
-1 -10 5 -8 2 -10 -8 -6 -12 4 -14 1 -11 -14 7 -25 20 -33 29 -18 4 8 3 9 -4
5 -7 -4 -12 -3 -12 3 0 17 14 20 27 6 10 -10 9 -14 -3 -19 -11 -4 -12 -10 -5
-24 7 -14 6 -19 -4 -19 -7 0 -11 5 -9 11 2 6 -5 17 -17 24 -16 10 -19 10 -13
1 5 -9 2 -10 -10 -6 -11 4 -15 3 -11 -4 4 -6 13 -8 20 -5 9 3 15 -4 17 -17 2
-17 9 -22 32 -20 44 3 18 -12 -27 -16 -5 -1 -6 -11 -3 -23 3 -13 3 -18 0 -12
-7 16 -48 -4 -64 -31 -13 -20 -13 -20 9 -1 11 11 21 15 21 10 0 -5 4 -2 10 6
8 12 10 12 16 -3 3 -9 11 -14 16 -11 6 4 5 -3 -1 -15 -14 -25 -23 -28 -14 -4
5 15 3 16 -8 6 -7 -7 -17 -13 -23 -13 -5 0 -1 7 10 16 18 14 18 15 -4 4 -13
-6 -26 -18 -29 -26 -8 -21 9 -35 27 -23 13 9 12 10 -2 5 -12 -3 -18 0 -18 9 0
12 5 12 25 3 16 -7 21 -14 14 -19 -8 -5 -7 -8 2 -12 8 -2 -3 -4 -24 -2 -43 3
-58 -12 -32 -32 11 -7 15 -13 11 -13 -5 0 -4 -6 1 -12 14 -18 14 -60 1 -52 -7
4 -8 2 -4 -5 4 -6 12 -8 18 -5 7 4 8 2 4 -5 -5 -7 -17 -9 -29 -6 -14 4 -10 -1
11 -15 30 -18 32 -23 20 -38 -12 -15 -11 -16 4 -3 10 7 16 16 14 20 -3 4 7 7
22 8 15 0 19 -1 10 -4 -10 -2 -18 -9 -18 -14 0 -12 7 -11 30 1 13 7 21 7 25 0
4 -6 3 -10 -2 -9 -20 3 -34 -2 -28 -11 3 -5 12 -7 20 -3 8 3 15 0 15 -6 0 -6
0 -13 0 -16 0 -3 -3 -4 -7 -2 -5 1 -7 5 -5 10 1 4 -1 6 -5 5 -5 -1 -18 3 -30
10 -25 14 -34 5 -22 -23 6 -17 8 -17 8 -2 1 9 6 17 12 17 5 0 7 -5 3 -12 -4
-6 -3 -8 3 -5 9 6 45 -27 38 -35 -2 -2 5 -4 15 -5 11 -1 22 2 25 8 8 12 42 12
50 -1 3 -6 -1 -7 -9 -4 -10 4 -16 1 -16 -7 0 -7 3 -9 7 -6 3 4 11 -1 18 -10 9
-13 14 -13 20 -3 5 8 4 11 -3 6 -9 -5 -10 31 -2 54 2 3 2 9 1 13 -1 5 3 6 8 3
5 -4 12 0 14 6 4 9 6 9 6 1 1 -6 -6 -19 -15 -27 -9 -9 -11 -16 -4 -16 6 0 9
-4 6 -9 -3 -4 1 -17 9 -27 9 -11 13 -13 10 -4 -4 12 4 15 35 16 27 1 38 -2 33
-10 -3 -6 0 -6 8 2 17 16 37 16 21 0 -7 -7 -12 -17 -12 -22 0 -6 5 -3 11 7 6
9 15 15 20 11 6 -3 5 -12 -3 -22 -11 -15 -11 -15 3 -5 9 7 20 9 24 5 5 -4 4 0
-1 8 -11 18 -13 61 -3 54 4 -2 10 0 14 6 4 6 11 7 17 4 19 -12 73 -12 87 -1
10 8 13 8 8 1 -4 -7 7 -11 33 -11 22 0 37 4 34 9 -3 4 -1 8 4 8 6 0 13 -8 16
-17 4 -10 4 -14 0 -10 -4 4 -13 2 -21 -4 -10 -9 -13 -8 -13 1 0 10 -3 10 -15
0 -12 -10 -15 -10 -15 0 0 9 -4 9 -12 3 -15 -11 -48 -13 -48 -3 0 4 -6 7 -13
7 -7 0 -13 -12 -12 -28 0 -15 4 -25 8 -22 5 3 6 11 3 19 -7 19 4 17 20 -4 10
-12 12 -12 9 -2 -4 12 4 15 35 16 27 1 38 -2 33 -10 -4 -6 0 -5 9 2 14 11 18
10 28 -5 11 -17 11 -17 6 0 -6 20 50 61 68 49 17 -10 60 -10 73 0 14 11 36 1
28 -12 -3 -5 -1 -11 4 -14 5 -4 12 2 15 12 8 24 39 25 54 2 9 -14 8 -19 -3
-24 -9 -3 -12 0 -9 8 3 8 0 17 -7 22 -9 5 -10 2 -6 -9 3 -8 -1 -21 -10 -29
-14 -11 -15 -10 -9 12 6 19 5 21 -3 10 -11 -17 -40 -20 -58 -7 -7 5 -17 6 -24
2 -6 -4 -15 -1 -20 6 -7 12 -9 11 -9 -1 0 -12 -2 -12 -9 -1 -5 7 -11 9 -13 5
-3 -5 3 -18 14 -29 12 -12 17 -14 13 -5 -4 11 2 15 21 17 19 1 23 -2 15 -10
-6 -6 -11 -16 -11 -21 0 -6 5 -4 10 5 12 21 57 16 75 -8 13 -17 13 -17 12 2
-1 11 4 20 13 20 25 2 32 -6 18 -23 -11 -15 -11 -15 3 -5 9 7 20 9 24 5 5 -4
4 0 -1 8 -11 18 -13 61 -3 54 4 -2 10 0 14 6 4 6 11 7 17 4 19 -12 73 -12 87
-1 10 8 13 8 8 1 -4 -7 7 -11 33 -11 22 0 37 4 34 9 -3 4 -1 8 4 8 6 0 13 -8
16 -17 4 -10 4 -14 0 -10 -4 4 -13 2 -21 -4 -10 -9 -13 -8 -13 1 0 10 -3 10
-15 0 -12 -10 -15 -10 -15 0 0 9 -4 9 -12 3 -15 -11 -48 -13 -48 -3 0 4 -6 7
-13 7 -7 0 -13 -12 -12 -28 0 -15 4 -25 8 -22 5 3 6 11 3 19 -7 19 4 17 20 -3
10 -13 12 -13 9 -3 -4 12 4 15 35 16 27 1 38 -2 33 -10 -4 -6 0 -5 9 2 14 11
18 10 28 -5 11 -17 11 -17 6 0 -6 20 50 61 68 49 17 -10 60 -10 73 0 14 11 36
1 28 -12 -3 -5 -1 -11 4 -14 5 -4 12 2 15 12 8 24 44 26 51 1 4 -10 11 -19 16
-19 13 0 11 13 -3 30 -11 12 -10 12 4 2 11 -9 18 -10 23 -2 3 6 11 7 17 4 18
-11 73 -13 86 -2 6 6 12 7 12 2 0 -5 5 -2 10 6 7 11 10 11 10 2 0 -7 5 -10 10
-7 6 3 10 1 10 -5 0 -6 5 -8 10 -5 6 4 8 11 5 16 -3 5 1 6 10 3 26 -10 -11
-31 -51 -29 -38 2 -42 -2 -17 -20 15 -11 22 -10 44 6 32 22 36 23 42 7 2 -7 3
-5 2 5 -2 9 1 17 7 17 5 0 6 6 3 13 -4 6 4 1 16 -13 13 -15 20 -18 16 -8 -3 9
1 24 8 35 13 17 14 16 9 -10 -2 -15 0 -27 5 -27 6 0 8 9 6 19 -4 23 18 56 37
56 7 0 17 10 23 23 5 12 13 22 17 22 5 0 8 5 8 11 0 5 -4 7 -10 4 -5 -3 -10 1
-10 10 0 9 4 14 9 10 5 -3 16 4 24 15 7 11 18 17 23 12 4 -4 2 1 -5 10 -13 18
-36 15 -26 -3 3 -5 -1 -6 -9 -3 -18 7 -20 16 -7 30 23 23 50 85 44 101 -5 17
-5 17 8 0 16 -20 61 -18 67 4 2 8 0 10 -5 4 -15 -19 -42 -16 -54 6 -9 17 -8
23 2 30 8 5 16 9 19 9 3 0 6 9 7 20 1 11 -2 18 -8 15 -5 -4 -9 -2 -9 4 0 5 6
12 13 15 10 5 10 7 0 12 -7 3 -13 10 -13 15 0 6 5 7 10 4 6 -4 10 5 10 20 0
14 4 24 9 21 9 -6 8 -57 -3 -74 -4 -6 2 -8 14 -5 21 6 26 18 11 27 -10 7 -9
25 3 44 4 7 4 12 -1 11 -22 -4 -25 2 -7 16 18 15 18 15 0 8 -14 -5 -17 -3 -11
7 6 10 4 11 -6 4 -26 -16 -42 -13 -62 12 -10 14 -22 23 -25 20 -2 -3 1 -14 9
-23 13 -16 12 -17 -4 -4 -10 8 -16 20 -13 28 3 7 0 13 -6 13 -6 0 -8 3 -5 6 4
4 13 2 20 -4 8 -7 18 -8 22 -4 5 4 5 2 1 -5 -3 -6 -1 -15 5 -19 9 -5 10 0 7
14 -7 24 7 31 15 8 3 -7 0 -19 -6 -26 -9 -10 -9 -11 2 -5 10 6 12 4 6 -4 -6
-10 -3 -11 15 -1 l22 12 -21 19 c-12 11 -20 23 -17 27 2 4 -8 8 -22 8 -15 1
-21 -1 -14 -3 6 -3 10 -9 6 -14 -3 -5 -24 4 -47 19 -49 34 -72 37 -74 10 -1
-11 3 -17 10 -15 7 3 11 10 9 17 -1 6 3 10 9 8 7 -2 14 -15 16 -29 2 -16 0
-20 -6 -10 -6 10 -13 10 -28 2 -11 -5 -24 -7 -28 -3 -5 4 -5 -1 -2 -11 4 -10
3 -16 -2 -12 -6 3 -9 14 -8 25 1 10 4 17 7 15 4 -2 7 3 7 12 0 13 -3 13 -16
-4 -9 -11 -27 -19 -40 -18 -12 1 -25 -4 -28 -12 -4 -11 -8 -10 -19 4 -13 17
-15 17 -29 -2 -15 -19 -15 -19 -12 5 3 18 10 24 23 22 16 -2 17 -1 4 8 -13 10
-13 11 0 7 8 -2 15 -9 15 -14 0 -6 3 -15 8 -19 4 -4 7 1 7 11 0 14 3 15 14 6
7 -6 20 -9 29 -5 18 6 31 34 17 34 -6 0 -10 -5 -10 -11 0 -5 -5 -7 -12 -3 -7
5 -8 3 -3 -6 5 -8 3 -11 -6 -8 -8 3 -13 14 -12 24 1 10 0 14 -3 7 -3 -6 -16
-10 -29 -7 -13 2 -27 -1 -30 -7 -5 -6 -12 -4 -22 8 -13 16 -13 16 -2 -6 10
-21 9 -23 -5 -18 -18 7 -68 -12 -61 -23 2 -4 -2 -7 -10 -7 -12 0 -12 3 -2 15
10 13 8 14 -13 7 -21 -7 -23 -6 -13 6 8 10 9 20 3 29 -9 13 -10 13 -11 0 -1
-8 -1 -18 0 -23 0 -4 -3 -7 -7 -7 -17 0 -21 13 -11 34 9 19 9 19 -4 4 -16 -21
-32 -24 -21 -5 5 9 4 9 -6 0 -7 -6 -19 -9 -26 -6 -8 3 -14 0 -14 -7 0 -6 -4
-9 -10 -5 -5 3 -7 13 -4 23 5 14 4 14 -4 2 -16 -22 4 -38 42 -34 23 2 39 -3
50 -15 14 -15 14 -18 1 -18 -8 0 -12 4 -9 8 2 4 -2 9 -8 12 -18 5 -48 -3 -48
-14 0 -5 -9 0 -20 11 -19 19 -22 19 -45 4 -24 -16 -25 -16 -18 2 6 17 5 18
-13 4 -19 -14 -19 -14 0 8 20 23 32 30 20 10 -5 -7 -3 -8 6 -3 9 6 11 4 5 -6
-7 -12 -6 -12 6 0 11 10 11 15 1 18 -6 3 -9 10 -5 16 4 6 -7 1 -24 -11 -34
-24 -59 -31 -27 -7 18 13 17 14 -13 10 -18 -2 -33 1 -33 6 0 5 7 9 15 9 18 0
20 17 3 23 -7 2 -5 3 5 2 9 -2 17 3 17 12 0 9 -5 11 -12 7 -10 -6 -10 -5 -1 8
13 15 8 28 -9 28 -5 0 -6 -5 -2 -12 4 -7 3 -8 -5 -4 -9 6 -9 11 1 23 8 10 13
12 16 4 3 -8 8 -6 16 5 12 15 13 15 13 0 0 -9 -3 -16 -7 -16 -4 0 -7 -7 -7
-15 0 -8 5 -11 10 -8 6 4 8 0 4 -10 -4 -11 -2 -14 9 -10 8 3 12 8 9 11 -3 3 5
17 17 31 l23 26 -27 -24 c-16 -14 -28 -20 -28 -14 0 5 9 18 20 28 11 10 20 27
20 37 0 13 4 17 13 12 8 -5 8 -2 -2 9 -14 18 -47 24 -36 7 3 -6 1 -10 -4 -10
-19 0 -12 22 9 27 23 6 23 7 9 36 -10 21 -10 21 6 2 8 -11 13 -25 11 -31 -3
-7 3 -10 15 -7 10 3 19 10 19 15 0 5 4 7 9 3 6 -3 8 6 5 21 -4 23 -3 25 10 15
10 -8 16 -9 21 -1 4 6 1 9 -6 8 -6 -2 -14 3 -17 11 -3 8 0 11 6 7 6 -4 19 5
29 20 16 24 18 25 25 8 6 -14 7 -12 3 7 -5 28 15 55 31 41 4 -4 3 0 -4 9 -10
13 -10 19 1 28 8 6 18 7 22 3 5 -4 4 -1 0 7 -6 11 -4 13 8 8 10 -3 17 -2 17 3
0 6 -7 10 -17 10 -14 0 -14 2 2 20 12 13 25 18 37 14 19 -6 19 -5 1 15 -19 22
-28 28 -18 10 4 -6 -2 -5 -14 2 -26 17 -5 32 23 17 15 -8 21 -8 24 1 2 6 9 8
15 4 8 -5 8 -2 0 9 -7 8 -10 18 -6 22 4 4 -1 4 -11 0 -12 -5 -14 -9 -6 -14 7
-4 8 -10 4 -13 -5 -3 -14 1 -20 7 -8 9 -4 16 17 29 16 9 28 13 28 9 -3 -19 2
-32 12 -32 6 0 7 5 2 13 -15 24 -11 72 9 94 12 12 17 27 13 34 -5 7 -4 10 2 6
6 -4 13 0 17 8 3 8 11 15 18 15 10 0 10 -2 -1 -9 -7 -5 -11 -13 -7 -19 3 -6 1
-14 -6 -19 -7 -4 -14 -18 -14 -30 -1 -13 3 -20 7 -17 5 3 6 10 3 16 -5 8 -1 9
10 5 10 -4 15 -3 11 3 -3 6 0 10 7 10 10 0 10 2 -1 9 -8 5 -9 11 -3 15 6 3 13
2 17 -4 3 -5 11 -10 17 -10 5 0 0 8 -12 18 -21 17 -21 19 -4 32 16 13 17 13
11 -2 -3 -10 -1 -20 5 -24 6 -4 8 -3 4 4 -3 6 1 18 10 27 9 9 13 19 9 23 -4 4
-10 1 -12 -6 -4 -10 -8 -10 -21 0 -13 11 -14 11 -7 -1 6 -10 4 -12 -5 -6 -9 5
-11 4 -6 -3 5 -8 2 -10 -9 -6 -14 6 -14 8 2 19 10 7 22 11 27 7 5 -3 7 2 3 10
-3 9 2 24 12 35 10 10 16 24 15 31 -1 7 0 8 3 2 3 -7 9 -8 17 -1 9 8 13 7 13
-4 0 -8 -5 -11 -10 -8 -6 4 -7 1 -2 -7 6 -9 4 -11 -5 -5 -9 6 -11 4 -5 -5 6
-9 4 -11 -5 -5 -9 6 -11 4 -5 -5 6 -9 4 -11 -5 -5 -9 6 -11 4 -5 -5 6 -9 4
-11 -5 -5 -9 5 -11 4 -6 -4 4 -6 11 -9 16 -6 5 3 11 1 15 -5 8 -13 25 -3 25
13 0 8 -3 8 -9 -2 -5 -8 -11 -9 -15 -3 -3 6 4 18 16 26 12 9 19 18 15 22 -11
11 13 45 26 38 7 -4 9 -4 5 1 -13 14 11 33 35 29 18 -4 19 -3 4 4 -17 7 -17 9
-3 21 22 18 20 30 -4 28 -11 -1 -20 -5 -20 -10 0 -5 7 -7 15 -3 20 7 19 4 -4
-16 -18 -15 -20 -15 -35 1 -10 11 -12 21 -5 31 8 12 9 12 7 -4 -2 -10 3 -21
10 -23 7 -3 10 1 6 10 -3 8 -1 18 4 21 6 3 9 14 7 24 -1 9 0 11 2 4 4 -10 8
-10 19 -1 8 6 14 8 14 4 0 -4 7 -2 15 5 9 8 15 9 15 2 0 -6 -4 -14 -10 -17 -5
-3 -9 -14 -9 -23 1 -15 2 -15 6 1 2 9 8 15 12 13 4 -3 9 10 10 29 3 63 5 74
13 69 4 -3 8 -1 8 5 0 5 -6 11 -12 14 -7 2 1 4 19 5 26 0 31 -3 26 -16 -4 -14
-3 -14 5 -2 6 8 8 19 4 25 -10 14 -10 55 0 49 7 -5 10 4 7 23 0 3 7 10 16 15
13 8 14 12 3 26 -7 9 -8 13 -3 11 9 -5 42 21 48 38 1 5 4 7 7 6 16 -5 34 -9
27 -6 -4 3 -4 10 -1 15 4 7 2 8 -4 4 -18 -11 -14 5 4 19 14 9 14 16 5 34 -7
12 -10 27 -7 34 2 7 5 5 5 -5 1 -9 6 -20 13 -24 6 -4 8 -3 4 4 -3 6 3 14 15
17 19 7 20 8 3 26 -9 11 -20 17 -23 14 -3 -4 1 -10 9 -15 8 -5 11 -12 7 -17
-9 -9 -28 17 -23 32 2 6 10 9 19 7 8 -1 19 3 23 9 5 8 3 9 -5 5 -16 -10 -11
24 6 42 7 7 10 19 7 26 -3 8 2 16 13 19 17 4 17 5 0 6 -10 0 -16 5 -13 9 3 5
-1 9 -9 9 -8 0 -12 -3 -10 -7 2 -4 -2 -7 -10 -7 -8 0 -15 4 -15 9 0 4 5 8 11
8 5 0 7 5 4 10 -4 6 -11 7 -17 4 -7 -4 -8 -2 -4 5 6 9 11 9 22 0 8 -6 18 -9
22 -5 4 4 -1 12 -10 17 -10 5 -15 16 -11 24 4 11 0 14 -13 9 -15 -5 -16 -4 -4
4 8 6 17 9 21 6 4 -2 12 2 18 9 8 10 6 19 -5 35 -8 12 -19 20 -24 17 -4 -3
-11 2 -14 11 -9 24 -8 26 12 15 9 -5 22 -10 27 -11 6 -1 9 -5 8 -9 -1 -4 5 -8
13 -8 11 0 11 4 -3 19 -9 10 -18 16 -21 13 -3 -2 -13 0 -24 6 -21 11 -14 33 8
25 7 -3 16 -1 18 3 5 7 -11 8 -48 2 -4 0 -6 -8 -2 -16 3 -8 0 -15 -6 -15 -7 0
-7 -4 0 -12 10 -13 12 -18 12 -39 0 -8 5 -8 15 1 9 8 15 8 15 2 0 -6 -3 -12
-8 -15 -4 -2 -2 -3 4 -1 6 1 11 -3 11 -10 0 -6 -8 -12 -18 -12 -10 0 -17 3
-17 6 1 3 -2 13 -7 23 -6 15 -10 16 -17 5 -8 -10 -9 -10 -5 2 2 8 -8 23 -22
32 -14 10 -21 18 -14 18 6 0 15 -4 18 -10 3 -5 11 -10 18 -10 8 0 8 3 -1 12
-7 7 -12 17 -12 22 0 6 5 4 10 -4 5 -8 10 -10 10 -4 0 6 -10 19 -22 30 -12 10
-18 14 -15 8 10 -17 -23 -27 -40 -13 -10 9 -17 9 -25 1 -15 -15 -28 -15 -28
-1 0 5 5 7 10 4 6 -3 10 -2 10 4 0 5 -6 12 -12 14 -10 4 -10 6 0 6 6 1 12 6
12 12 0 5 -5 7 -12 3 -8 -5 -9 -2 -5 10 4 11 3 15 -4 11 -6 -4 -8 -13 -5 -21
3 -7 -4 -18 -14 -24 -11 -6 -20 -9 -21 -8 0 2 -2 13 -3 25 -2 13 -6 26 -11 30
-4 5 -5 -1 -1 -12 5 -18 2 -21 -26 -20 -18 0 -43 6 -55 13 -29 16 -41 15 -19
-1 16 -12 16 -14 2 -26 -9 -8 -19 -11 -23 -8 -3 4 -13 1 -21 -6 -8 -6 -23 -13
-34 -13 -35 -3 -39 -4 -33 -13 3 -5 1 -12 -4 -15 -5 -4 -8 2 -7 11 2 9 8 19
14 21 7 2 9 8 6 13 -3 6 -12 5 -21 -3 -21 -17 -41 -19 -46 -4 -3 7 1 13 9 13
8 0 14 -4 14 -9 0 -5 5 -6 10 -3 6 4 8 10 5 15 -3 5 0 12 6 16 7 4 9 3 5 -4
-4 -7 1 -10 14 -7 11 2 18 1 16 -4 -3 -4 6 -7 19 -7 13 0 22 3 19 7 -2 5 4 6
16 4 11 -2 23 1 26 7 4 7 2 8 -4 4 -11 -7 -17 7 -12 29 1 5 -2 7 -6 3 -4 -4
-14 -2 -23 4 -12 10 -12 8 2 -8 22 -26 22 -41 0 -23 -13 11 -15 11 -9 1 6 -10
2 -13 -15 -10 -13 2 -27 7 -31 12 -4 6 -12 6 -20 -1 -17 -14 -66 -11 -96 5
-12 7 -21 9 -20 5 2 -4 -1 -8 -7 -8 -5 0 -9 6 -9 12 1 7 -3 10 -8 7 -5 -3 -7
-12 -4 -20 3 -8 1 -14 -5 -14 -6 0 -7 -5 -3 -11 3 -6 9 -7 13 -2 9 13 36 9 33
-6 -1 -7 2 -10 8 -6 6 3 8 11 5 16 -4 5 -1 9 4 9 16 0 13 -27 -4 -33 -8 -4
-17 -2 -20 4 -7 11 -37 8 -46 -4 -3 -4 -13 1 -23 12 -11 12 -14 21 -7 26 6 3
11 -1 11 -9 0 -23 15 -20 17 3 1 13 -4 18 -15 16 -9 -1 -20 5 -24 14 -6 14 -7
13 -7 -2 -1 -10 -5 -16 -10 -12 -5 3 -12 1 -16 -5 -3 -5 -11 -10 -17 -10 -6 0
-5 7 3 18 12 16 12 16 -5 0 -14 -13 -23 -14 -36 -6 -22 14 -51 3 -44 -16 7
-18 -14 -32 -28 -18 -8 8 -15 6 -25 -4 -15 -15 -38 -10 -28 7 4 5 -1 9 -10 9
-9 0 -14 -4 -11 -9 4 -5 -2 -8 -11 -6 -10 1 -17 8 -15 14 1 6 -3 11 -8 11 -5
0 -10 -4 -10 -10 0 -16 -16 -12 -18 5 -1 8 -3 22 -4 30 -2 25 -16 17 -14 -9 0
-13 5 -22 9 -19 5 3 3 -4 -4 -15 -10 -16 -16 -18 -31 -9 -23 15 -31 37 -13 37
8 0 14 -5 13 -11 -2 -6 4 -14 12 -16 12 -4 12 -3 1 5 -11 8 -11 10 0 15 11 3
9 7 -4 12 -21 9 -69 -13 -60 -28 3 -5 10 -3 15 4 8 11 9 11 5 -1 -2 -8 -10
-14 -16 -12 -6 1 -11 -2 -11 -8 0 -5 -5 -10 -11 -10 -6 0 -7 5 -2 13 4 6 9 20
10 29 4 25 -34 18 -46 -9 -9 -20 -7 -25 19 -38 17 -9 30 -18 30 -21 0 -8 -43
17 -66 38 -20 18 -22 18 -35 1 -12 -15 -12 -16 3 -10 12 4 15 2 11 -9 -5 -13
-8 -13 -23 1 -9 8 -21 12 -25 8 -5 -5 -3 0 4 9 7 10 17 16 21 13 5 -3 11 -1
15 5 4 6 10 8 15 5 4 -3 13 2 21 11 10 12 9 18 -4 30 -9 8 -12 9 -7 2z m-25
-28 c3 -5 -1 -10 -10 -10 -9 0 -13 5 -10 10 3 6 8 10 10 10 2 0 7 -4 10 -10z
m-249 -16 c-5 -14 -4 -15 8 -5 10 9 16 9 21 1 5 -8 13 -6 25 5 11 10 20 12 24
6 4 -5 16 -8 27 -6 16 3 18 1 10 -9 -6 -7 -7 -16 -3 -20 4 -4 3 -7 -3 -6 -21
5 -36 0 -30 -9 3 -5 1 -12 -4 -15 -5 -4 -8 2 -7 11 2 9 8 19 14 21 7 2 9 8 6
14 -4 5 -13 3 -24 -7 -12 -11 -20 -13 -25 -5 -5 8 -10 8 -20 0 -9 -8 -17 -6
-29 5 -16 17 -13 35 6 35 5 0 7 -7 4 -16z m324 -4 c-12 -22 -21 -26 -17 -7 2
10 17 26 25 27 1 0 -2 -9 -8 -20z m354 5 c10 -2 24 -1 30 3 20 12 33 10 33 -7
0 -20 -18 -33 -32 -22 -13 11 -45 10 -45 -1 0 -12 -39 14 -45 30 -4 11 0 13
17 8 13 -4 32 -9 42 -11z m-509 -15 c-3 -5 2 -13 12 -18 18 -11 27 -42 11 -42
-5 0 -8 6 -5 13 2 6 -3 17 -11 23 -17 12 -26 48 -11 38 5 -3 7 -9 4 -14z m935
6 c0 -15 -37 -32 -47 -22 -4 3 1 6 10 6 10 0 16 3 16 8 -3 14 1 22 11 22 6 0
10 -6 10 -14z m64 -2 c9 -24 7 -31 -4 -14 -9 13 -10 13 -10 0 0 -13 -2 -13 -9
0 -10 15 -6 30 9 30 4 0 11 -7 14 -16z m49 -9 c-3 -9 -8 -14 -10 -11 -3 3 -2
9 2 15 9 16 15 13 8 -4z m-843 -20 c-7 -9 -15 -13 -19 -10 -3 3 1 10 9 15 21
14 24 12 10 -5z m106 4 c3 -6 1 -16 -6 -22 -10 -9 -11 -9 -5 2 4 8 2 17 -6 22
-9 6 -10 9 -2 9 6 0 15 -5 19 -11z m138 -4 c-4 -8 -11 -12 -16 -9 -6 4 -5 10
3 15 19 12 19 11 13 -6z m268 -8 c-7 -8 -9 -17 -5 -20 3 -4 1 -7 -5 -7 -6 0
-10 9 -9 19 0 11 5 17 9 15 4 -3 8 0 8 7 0 7 3 9 6 6 4 -4 2 -13 -4 -20z m154
8 c-1 -8 -5 -17 -8 -21 -5 -4 -4 16 1 34 3 9 9 -1 7 -13z m91 -7 c-3 -8 -6 -5
-6 6 -1 11 2 17 5 13 3 -3 4 -12 1 -19z m-1132 3 c3 -5 2 -12 -3 -15 -5 -3 -9
1 -9 9 0 17 3 19 12 6z m585 -3 c0 -6 -3 -8 -7 -5 -3 4 -13 1 -22 -6 -14 -11
-14 -10 -2 6 15 20 31 22 31 5z m57 -8 c-2 -11 -6 -22 -9 -26 -4 -3 -5 2 -3
13 2 10 4 21 4 26 1 4 3 7 6 7 3 0 4 -9 2 -20z m69 8 c3 -4 -1 -5 -10 -4 -8 1
-18 5 -22 8 -3 4 1 5 10 4 8 -1 18 -5 22 -8z m51 -8 c-1 -11 -5 -20 -9 -20 -3
0 -6 9 -5 20 1 11 5 20 9 20 3 0 6 -9 5 -20z m69 8 c3 -4 -1 -5 -10 -4 -8 1
-18 5 -22 8 -3 4 1 5 10 4 8 -1 18 -5 22 -8z m275 -20 c-10 -11 -11 -9 -5 6 6
15 4 17 -6 11 -9 -6 -11 -4 -5 4 5 9 10 10 18 2 8 -8 7 -14 -2 -23z m179 22
c8 -5 11 -10 5 -10 -5 0 -17 5 -25 10 -8 5 -10 10 -5 10 6 0 17 -5 25 -10z
m-838 -18 c-7 -2 -10 -8 -7 -13 4 -5 -2 -6 -11 -2 -11 4 -13 8 -6 11 7 2 10 8
7 13 -4 5 2 6 11 2 11 -4 13 -8 6 -11z m714 3 c-1 -8 -5 -17 -8 -21 -5 -4 -4
16 1 34 3 9 9 -1 7 -13z m-1114 -2 c-6 -2 -9 -10 -6 -15 4 -7 2 -8 -5 -4 -13
9 -5 26 12 25 9 0 8 -2 -1 -6z m480 0 c-6 -2 -9 -10 -6 -15 4 -7 2 -8 -5 -4
-13 9 -5 26 12 25 9 0 8 -2 -1 -6z m480 0 c-6 -2 -9 -10 -6 -15 4 -7 2 -8 -5
-4 -13 9 -5 26 12 25 9 0 8 -2 -1 -6z m-1196 -50 c1 -21 -1 -30 -3 -20 -3 9
-9 17 -14 17 -6 0 -8 -10 -4 -22 5 -18 4 -19 -4 -7 -12 19 -7 55 8 52 6 -2 11
2 11 7 0 6 1 10 3 10 2 0 3 -17 3 -37z m1553 -40 c-4 -22 2 -33 14 -27 6 4 8
3 4 -1 -16 -18 -33 -13 -31 9 3 26 3 26 9 26 3 0 4 -3 4 -7z m-1554 -13 c-3
-5 -12 -10 -18 -10 -7 0 -6 4 3 10 19 12 23 12 15 0z m6 -53 c-10 -9 -11 -8
-5 6 3 10 9 15 12 12 3 -3 0 -11 -7 -18z m1549 -48 c0 -5 -5 -9 -12 -9 -6 0
-8 3 -5 7 4 3 1 13 -6 22 -11 14 -10 14 6 2 9 -7 17 -17 17 -22z m55 3 c-1
-25 -15 -43 -26 -37 -5 4 -9 1 -9 -4 0 -6 5 -11 11 -11 5 0 7 -5 3 -11 -5 -8
-9 -7 -15 3 -14 24 -14 42 -1 43 6 0 12 4 11 9 0 6 18 24 27 26 0 0 0 -8 -1
-18z m-1618 -12 c1 -11 -2 -20 -5 -20 -4 0 -8 9 -9 20 -1 11 2 20 5 20 4 0 8
-9 9 -20z m-52 -10 c-3 -5 -1 -10 6 -10 7 0 9 -3 6 -6 -4 -4 -13 -2 -20 4 -8
7 -18 8 -22 4 -5 -4 -5 -1 -1 6 4 6 14 12 22 12 8 0 12 -4 9 -10z m1595 -20
c0 -5 -5 -10 -11 -10 -5 0 -7 5 -4 10 3 6 8 10 11 10 2 0 4 -4 4 -10z m-1620
-40 c0 -5 -2 -10 -4 -10 -3 0 -8 5 -11 10 -3 6 -1 10 4 10 6 0 11 -4 11 -10z
m1640 -15 c0 -8 -3 -16 -7 -18 -5 -3 -8 5 -8 18 0 13 3 21 8 18 4 -2 7 -10 7
-18z m-25 6 c3 -5 2 -12 -3 -15 -5 -3 -9 1 -9 9 0 17 3 19 12 6z m10 -51 c-3
-5 -12 -10 -18 -10 -7 0 -6 4 3 10 19 12 23 12 15 0z m22 -40 c3 -10 2 -11 -4
-4 -4 6 -15 14 -23 17 -11 5 -9 6 4 4 11 -1 21 -9 23 -17z m-32 -20 c3 -6 -1
-7 -9 -4 -18 7 -21 14 -7 14 6 0 13 -4 16 -10z m-25 -20 c-8 -5 -19 -10 -25
-10 -5 0 -3 5 5 10 8 5 20 10 25 10 6 0 3 -5 -5 -10z m-1512 -55 c-3 -3 -9 2
-12 12 -6 14 -5 15 5 6 7 -7 10 -15 7 -18z m42 -5 c0 -5 -8 -10 -17 -10 -15 0
-16 2 -3 10 19 12 20 12 20 0z m76 -16 c1 -9 0 -13 -4 -10 -3 4 -7 14 -8 22
-1 9 0 13 4 10 3 -4 7 -14 8 -22z m60 1 c2 -12 -2 -13 -19 -4 -32 17 -35 22
-8 14 18 -6 22 -4 16 6 -5 8 -4 10 0 6 5 -4 10 -14 11 -22z m299 16 c3 -5 2
-12 -3 -15 -5 -3 -9 1 -9 9 0 17 3 19 12 6z m58 -17 c-5 -14 -9 -13 -43 14 -3
3 6 1 19 -3 18 -5 22 -4 16 5 -5 8 -4 11 3 6 6 -4 9 -13 5 -22z m122 16 c3 -5
1 -10 -4 -10 -6 0 -11 5 -11 10 0 6 2 10 4 10 3 0 8 -4 11 -10z m61 -16 c1 -9
0 -13 -4 -10 -3 4 -7 14 -8 22 -1 9 0 13 4 10 3 -4 7 -14 8 -22z m-398 -9 c-3
-3 -9 2 -12 12 -6 14 -5 15 5 6 7 -7 10 -15 7 -18z m60 9 c8 -2 17 -5 20 -8 3
-4 -4 -5 -16 -3 -12 2 -28 9 -35 17 -10 10 -9 11 3 4 8 -5 21 -9 28 -10z m66
-8 c-3 -9 -10 -16 -15 -16 -5 0 -4 9 3 20 14 22 21 20 12 -4z m1027 6 c-7 -2
-18 1 -23 6 -8 8 -4 9 13 5 13 -4 18 -8 10 -11z m-1177 -8 c3 -7 -3 -10 -15
-7 -26 7 -32 19 -9 19 11 0 22 -6 24 -12z m312 7 c-6 -9 -46 -22 -46 -15 0 3
10 9 23 14 29 11 29 11 23 1z m34 -21 c0 -4 -6 -13 -14 -19 -11 -9 -16 -9 -22
0 -5 8 -3 9 6 4 9 -6 12 -4 8 7 -4 9 0 15 8 15 8 0 14 -4 14 -7z m800 -44 c0
-6 -7 -1 -15 10 -8 10 -15 23 -15 28 0 6 7 1 15 -10 8 -10 15 -23 15 -28z
m-1126 19 c3 -8 1 -15 -4 -15 -6 0 -10 7 -10 15 0 8 2 15 4 15 2 0 6 -7 10
-15z m183 -7 c-3 -8 -6 -5 -6 6 -1 11 2 17 5 13 3 -3 4 -12 1 -19z m193 8 c0
-2 -7 -7 -16 -10 -8 -3 -12 -2 -9 4 6 10 25 14 25 6z m-133 -23 c0 -9 -4 -10
-14 -2 -10 9 -13 8 -13 -1 0 -8 -3 -11 -6 -7 -9 9 3 24 19 24 7 0 14 -6 14
-14z m857 -8 c-4 -8 -11 -12 -16 -9 -6 4 -5 10 3 15 19 12 19 11 13 -6z m-878
-67 c4 -7 3 -8 -4 -4 -13 8 -11 -42 3 -64 6 -9 3 -10 -12 -2 -22 12 -51 44
-37 41 21 -4 30 2 30 21 0 11 -6 20 -13 20 -7 0 -13 5 -13 10 0 13 35 -4 46
-22z m29 3 c-6 -5 -25 10 -25 20 0 5 6 4 14 -3 8 -7 12 -15 11 -17z m25 19 c8
-5 11 -10 5 -10 -5 0 -17 5 -25 10 -8 5 -10 10 -5 10 6 0 17 -5 25 -10z m800
-1 c0 -4 -6 -9 -13 -12 -8 -3 -14 0 -14 7 0 7 6 13 14 13 7 0 13 -4 13 -8z
m-750 -15 c0 -8 -19 -13 -24 -6 -3 5 1 9 9 9 8 0 15 -2 15 -3z m711 -41 c-12
-20 -14 -14 -5 12 4 9 9 14 11 11 3 -2 0 -13 -6 -23z m29 -4 c-7 -11 -14 -18
-17 -15 -3 3 0 12 7 21 18 21 23 19 10 -6z m-780 7 c0 -3 -4 -8 -10 -11 -5 -3
-10 -1 -10 4 0 6 5 11 10 11 6 0 10 -2 10 -4z m702 -32 c-9 -16 -10 -14 -9 8
1 15 6 23 11 18 4 -4 4 -16 -2 -26z m-25 -9 c0 -8 -10 -23 -21 -32 -21 -18
-21 -18 -2 5 11 12 16 22 12 22 -4 0 -4 5 -1 10 9 14 12 13 12 -5z m-747 -45
c18 -12 2 -12 -25 0 -13 6 -15 9 -5 9 8 0 22 -4 30 -9z m765 -50 c-8 -9 -24
-16 -36 -17 -20 -2 -21 -1 -3 12 10 7 22 11 26 9 14 -9 8 9 -9 30 -18 20 -18
20 9 0 23 -16 24 -21 13 -34z m-41 32 c3 -5 -1 -9 -9 -9 -8 0 -12 4 -9 9 3 4
7 8 9 8 2 0 6 -4 9 -8z m-767 -44 c-3 -8 -6 -5 -6 6 -1 11 2 17 5 13 3 -3 4
-12 1 -19z m763 18 c0 -2 -7 -7 -16 -10 -8 -3 -12 -2 -9 4 6 10 25 14 25 6z
m-50 -36 c0 -5 -5 -10 -11 -10 -5 0 -7 5 -4 10 3 6 8 10 11 10 2 0 4 -4 4 -10z
m-780 -21 c0 -14 -17 -10 -23 5 -4 10 -1 13 9 9 7 -3 14 -9 14 -14z m770 -4
c0 -2 -6 -5 -13 -8 -8 -3 -14 1 -14 8 0 7 6 11 14 8 7 -3 13 -6 13 -8z m-745
-15 c-3 -5 -12 -10 -18 -10 -7 0 -6 4 3 10 19 12 23 12 15 0z m730 -40 c-3 -5
-12 -10 -18 -10 -7 0 -6 4 3 10 19 12 23 12 15 0z m-35 -20 c0 -5 -4 -10 -10
-10 -5 0 -10 5 -10 10 0 6 5 10 10 10 6 0 10 -4 10 -10z m-765 -40 c-1 -11 -5
-23 -10 -27 -4 -5 -5 -3 -1 4 3 6 1 15 -5 19 -8 4 -7 9 2 15 8 5 14 9 15 9 0
0 0 -9 -1 -20z m735 -35 c-7 -9 -15 -13 -18 -10 -3 3 -12 -1 -21 -8 -14 -11
-14 -10 -2 5 7 10 17 16 21 13 5 -3 11 -1 15 5 3 5 9 10 12 10 3 0 0 -7 -7
-15z m-775 -35 c-3 -5 -14 -10 -23 -9 -14 0 -13 2 3 9 27 11 27 11 20 0z m730
-10 c3 -6 -1 -7 -9 -4 -18 7 -21 14 -7 14 6 0 13 -4 16 -10z m-790 -10 c3 -5
1 -10 -4 -10 -6 0 -11 5 -11 10 0 6 2 10 4 10 3 0 8 -4 11 -10z m806 -13 c-10
-9 -11 -8 -5 6 3 10 9 15 12 12 3 -3 0 -11 -7 -18z m-860 -20 c-17 -17 -13
-31 4 -17 9 7 18 10 22 6 3 -3 1 -6 -6 -6 -7 0 -10 -4 -7 -9 7 -11 -13 -9 -31
2 -7 5 -13 4 -13 -2 0 -15 38 -33 53 -25 9 5 9 4 1 -5 -9 -10 -17 -10 -32 -2
-19 10 -32 6 -32 -11 0 -5 5 -6 11 -2 8 4 8 0 0 -15 -13 -24 -23 -28 -15 -6 4
8 -1 17 -10 21 -13 5 -11 13 16 50 17 24 35 41 40 38 6 -4 5 -11 -1 -17z m837
12 c-2 -6 -7 -10 -12 -9 -4 1 -14 -7 -22 -17 -14 -17 -14 -16 -4 5 6 12 15 20
21 17 5 -4 9 -1 9 4 0 6 3 11 6 11 3 0 4 -5 2 -11z m-772 -11 c-9 -5 -23 -5
-32 0 -12 6 -7 9 16 9 23 0 28 -3 16 -9z m714 -53 c0 -7 -30 -13 -34 -7 -3 4
4 9 15 9 10 1 19 0 19 -2z m28 -23 c9 -7 8 -13 -8 -27 -11 -10 -17 -21 -15
-25 2 -4 -4 -15 -15 -25 -11 -10 -17 -21 -15 -26 3 -4 -3 -14 -13 -21 -11 -7
-19 -15 -18 -18 0 -3 -7 -16 -17 -30 -11 -15 -17 -19 -17 -10 -1 9 -6 5 -14
-9 -11 -20 -14 -21 -19 -7 -4 10 -3 15 2 12 7 -5 21 14 25 34 3 15 19 30 27
25 5 -4 9 -1 9 4 0 6 -4 11 -10 11 -5 0 -10 5 -10 11 0 8 4 8 14 0 10 -8 16
-9 21 -1 3 5 2 10 -3 10 -5 0 -9 7 -9 16 0 15 1 15 12 0 7 -8 15 -13 18 -9 4
3 2 12 -4 19 -6 7 -9 21 -6 31 4 14 5 13 6 -5 0 -13 5 -21 10 -17 6 3 8 15 6
26 -3 16 -1 18 9 10 13 -11 26 -5 26 11 0 5 -4 6 -10 3 -5 -3 -10 -1 -10 4 0
13 10 14 28 3z m-872 -26 c-2 -14 0 -27 5 -30 5 -2 4 -3 -3 -2 -16 3 -51 -29
-54 -49 -1 -8 4 -15 11 -15 8 0 17 -4 20 -10 4 -7 -3 -7 -20 0 -36 14 -40 13
-24 -7 10 -11 10 -14 2 -9 -8 4 -13 2 -13 -4 0 -6 -4 -8 -10 -5 -5 3 -10 2
-10 -4 0 -5 3 -11 8 -14 4 -2 1 -2 -6 0 -8 2 -16 -6 -19 -16 -3 -11 -12 -22
-20 -25 -9 -4 -11 -2 -6 7 4 6 8 17 9 22 0 6 2 17 3 25 1 9 4 11 9 4 4 -6 13
-4 25 8 11 12 13 18 5 18 -7 1 -2 7 12 15 14 8 21 14 17 15 -5 0 -5 6 0 13 4
6 8 14 8 17 0 6 48 68 53 69 1 1 0 -10 -2 -23z m77 9 c-3 -9 -8 -14 -10 -11
-3 3 -2 9 2 15 9 16 15 13 8 -4z m668 -68 c-10 -9 -11 -8 -5 6 3 10 9 15 12
12 3 -3 0 -11 -7 -18z m-717 4 c3 -5 -1 -11 -9 -14 -9 -4 -12 -1 -8 9 6 16 10
17 17 5z m-24 -36 c14 -19 14 -19 -2 -6 -10 7 -18 18 -18 24 0 6 1 8 3 6 1 -2
9 -13 17 -24z m727 9 c-3 -3 -12 -4 -19 -1 -8 3 -5 6 6 6 11 1 17 -2 13 -5z
m-13 -55 c3 -3 -4 -5 -14 -6 -11 -1 -20 2 -20 7 0 8 25 8 34 -1z m-770 -41
c-3 -4 -9 -8 -15 -8 -5 0 -9 4 -9 8 0 5 7 9 15 9 8 0 12 -4 9 -9z m758 -5 c-6
-2 -9 -10 -6 -15 4 -7 2 -8 -5 -4 -13 9 -5 26 12 25 9 0 8 -2 -1 -6z m-809
-20 c-4 -11 -3 -14 5 -9 8 5 10 1 5 -10 -4 -11 -8 -13 -11 -6 -2 7 -8 10 -12
7 -5 -3 -12 0 -16 6 -4 7 -3 9 3 6 6 -4 13 0 17 8 3 8 8 15 10 15 3 0 2 -7 -1
-17z m826 -19 c-15 -18 -22 -13 -13 10 3 9 10 13 16 10 5 -3 4 -12 -3 -20z
m-75 4 c-3 -4 -9 -8 -15 -8 -5 0 -9 4 -9 8 0 5 7 9 15 9 8 0 12 -4 9 -9z m-34
-37 c0 -5 -7 -12 -16 -15 -14 -5 -15 -4 -4 9 14 17 20 19 20 6z m-798 -38 c-6
-3 -9 -10 -5 -16 4 -7 -1 -6 -10 2 -11 9 -17 10 -17 2 0 -6 -5 -11 -11 -11
-22 0 9 26 33 27 13 0 17 -1 10 -4z m834 -10 c13 -17 14 -17 8 0 -3 9 -1 17 5
17 16 0 13 -26 -5 -40 -12 -11 -15 -11 -12 1 2 9 -5 13 -20 12 -19 -3 -21 -1
-10 12 17 18 18 18 34 -2z m-802 -15 c-3 -4 -9 -8 -15 -8 -5 0 -9 4 -9 8 0 5
7 9 15 9 8 0 12 -4 9 -9z m723 -4 c-3 -3 -12 -4 -19 -1 -8 3 -5 6 6 6 11 1 17
-2 13 -5z m-747 -39 c0 -5 -5 -3 -10 5 -5 8 -10 20 -10 25 0 6 5 3 10 -5 5 -8
10 -19 10 -25z m-85 -5 c10 -11 16 -20 13 -20 -3 0 -13 9 -23 20 -10 11 -16
20 -13 20 3 0 13 -9 23 -20z m835 16 c0 -2 -9 -6 -20 -9 -11 -3 -18 -1 -14 4
5 9 34 13 34 5z m-773 -31 c0 -8 -4 -12 -9 -9 -4 3 -8 9 -8 15 0 5 4 9 8 9 5
0 9 -7 9 -15z m788 5 c3 -5 1 -10 -4 -10 -6 0 -11 5 -11 10 0 6 2 10 4 10 3 0
8 -4 11 -10z m-849 -22 c5 -7 3 -8 -6 -3 -9 6 -10 2 -5 -16 7 -23 7 -23 -8 -4
-11 15 -12 22 -4 27 15 10 15 10 23 -4z m27 -5 c-5 -12 -3 -14 7 -8 9 6 11 4
5 -4 -5 -9 -11 -9 -17 -3 -6 6 -7 15 -4 21 11 17 16 13 9 -6z m805 -24 c3 -11
2 -11 -7 1 -10 13 -12 13 -21 0 -5 -8 -10 -10 -10 -4 0 27 31 30 38 3z m-50
-14 c-3 -3 -9 2 -12 12 -6 14 -5 15 5 6 7 -7 10 -15 7 -18z m28 -17 c4 -7 3
-8 -4 -4 -7 4 -12 2 -12 -5 0 -7 -3 -10 -6 -6 -6 5 3 27 11 27 2 0 7 -5 11
-12z m-51 -8 c3 -6 -1 -7 -9 -4 -18 7 -21 14 -7 14 6 0 13 -4 16 -10z m-775
-20 c8 -5 12 -11 10 -14 -3 -2 -14 2 -24 10 -22 15 -10 19 14 4z m1205 -1 c11
-16 1 -19 -13 -3 -7 8 -8 14 -3 14 5 0 13 -5 16 -11z m252 -18 c1 -10 -4 -18
-10 -18 -7 0 -12 10 -12 22 0 26 20 23 22 -4z m-664 5 c3 -8 0 -17 -7 -19 -10
-4 -12 1 -9 14 6 23 9 24 16 5z m63 2 c5 -7 3 -8 -6 -3 -10 6 -12 4 -6 -11 5
-14 4 -16 -5 -7 -6 6 -8 16 -5 22 9 14 13 14 22 -1z m45 -20 c-10 -11 -11 -9
-5 6 6 15 4 17 -6 11 -9 -6 -11 -4 -5 4 5 9 10 10 18 2 8 -8 7 -14 -2 -23z
m93 24 c3 -5 -1 -9 -9 -9 -8 0 -15 4 -15 9 0 4 4 8 9 8 6 0 12 -4 15 -8z m66
-2 c0 -5 -5 -10 -11 -10 -5 0 -7 5 -4 10 3 6 8 10 11 10 2 0 4 -4 4 -10z m115
0 c3 -5 1 -10 -4 -10 -6 0 -11 5 -11 10 0 6 2 10 4 10 3 0 8 -4 11 -10z m-212
-14 c4 -10 1 -13 -8 -9 -8 3 -12 9 -9 14 7 12 11 11 17 -5z m-241 -18 c-2 -10
-6 -18 -7 -18 -1 0 -5 8 -7 18 -3 11 0 19 7 19 7 0 10 -8 7 -19z m696 -3 c-3
-3 -9 2 -12 12 -6 14 -5 15 5 6 7 -7 10 -15 7 -18z m-720 -10 c-3 -3 -9 2 -12
12 -6 14 -5 15 5 6 7 -7 10 -15 7 -18z m304 18 c-6 -2 -10 -8 -8 -12 3 -4 -1
-8 -9 -8 -11 0 -12 4 -4 14 6 7 17 13 23 12 7 0 6 -2 -2 -6z m81 0 c-7 -2 -19
-2 -25 0 -7 3 -2 5 12 5 14 0 19 -2 13 -5z m35 -18 c-3 -3 -9 2 -12 12 -6 14
-5 15 5 6 7 -7 10 -15 7 -18z m39 19 c-3 -3 -12 -4 -19 -1 -8 3 -5 6 6 6 11 1
17 -2 13 -5z m38 -5 c11 -16 1 -19 -13 -3 -7 8 -8 14 -3 14 5 0 13 -5 16 -11z
m-444 -22 c-10 -9 -11 -8 -5 6 3 10 9 15 12 12 3 -3 0 -11 -7 -18z m83 12 c3
-3 -5 -5 -19 -5 -13 0 -22 3 -19 7 4 8 30 6 38 -2z m46 3 c0 -5 -7 -9 -15 -9
-8 0 -12 4 -9 9 3 4 9 8 15 8 5 0 9 -4 9 -8z m60 0 c0 -5 -7 -9 -15 -9 -8 0
-12 4 -9 9 3 4 9 8 15 8 5 0 9 -4 9 -8z m320 0 c0 -5 -7 -9 -15 -9 -8 0 -12 4
-9 9 3 4 9 8 15 8 5 0 9 -4 9 -8z m94 -3 c3 -2 -15 -5 -39 -5 -24 0 -42 3 -40
6 5 8 72 7 79 -1z m46 7 c0 -2 -7 -7 -16 -10 -8 -3 -12 -2 -9 4 6 10 25 14 25
6z m-1445 -36 c3 -6 -1 -7 -9 -4 -18 7 -21 14 -7 14 6 0 13 -4 16 -10z m1570
-18 c-3 -3 -11 0 -18 7 -9 10 -8 11 6 5 10 -3 15 -9 12 -12z m24 -14 c-24 -34
-36 -38 -14 -5 8 13 13 26 10 29 -3 2 2 5 9 5 12 0 11 -7 -5 -29z m-1639 -12
c0 -2 -7 -7 -16 -10 -8 -3 -12 -2 -9 4 6 10 25 14 25 6z m1620 -46 c0 -5 -5
-10 -11 -10 -5 0 -7 5 -4 10 3 6 8 10 11 10 2 0 4 -4 4 -10z m-10 -35 c5 3 12
0 16 -6 4 -8 3 -9 -4 -5 -7 4 -12 1 -13 -6 0 -10 -2 -10 -6 0 -2 6 -9 10 -14
7 -5 -4 -6 2 -2 11 4 11 8 13 11 6 2 -7 8 -10 12 -7z m-1650 -49 c0 -2 -7 -7
-16 -10 -8 -3 -12 -2 -9 4 6 10 25 14 25 6z m1623 -57 c-8 -8 -13 -7 -18 2 -5
8 -4 10 3 5 7 -4 12 -2 12 5 0 7 3 9 7 6 4 -4 2 -12 -4 -18z m-40 -4 c-3 -9
-8 -14 -10 -11 -3 3 -2 9 2 15 9 16 15 13 8 -4z m25 -30 c-3 -3 -9 2 -12 12
-6 14 -5 15 5 6 7 -7 10 -15 7 -18z m-1698 -26 c0 7 5 9 11 6 6 -4 8 -13 5
-21 -3 -8 1 -17 10 -21 12 -5 13 -7 3 -14 -15 -9 -42 9 -33 22 3 5 -2 12 -10
15 -9 3 -16 11 -16 16 0 6 6 5 15 -2 11 -9 15 -9 15 -1z m70 7 c0 -2 -7 -7
-16 -10 -8 -3 -12 -2 -9 4 6 10 25 14 25 6z m1610 -8 c0 -6 -3 -8 -7 -5 -3 4
-13 1 -22 -6 -14 -11 -14 -10 -2 6 15 20 31 22 31 5z m-1605 -18 c3 -5 1 -10
-4 -10 -6 0 -11 5 -11 10 0 6 2 10 4 10 3 0 8 -4 11 -10z m1562 -32 c-3 -8 -6
-5 -6 6 -1 11 2 17 5 13 3 -3 4 -12 1 -19z m49 -1 c8 3 14 1 14 -5 0 -14 -33
-8 -36 7 -1 6 0 7 2 2 3 -6 12 -7 20 -4z m-1653 -18 c-9 -9 -9 -16 0 -31 10
-15 9 -20 -3 -28 -20 -12 -34 -1 -19 16 9 11 8 18 -2 31 -8 10 -9 14 -2 10 6
-4 14 -3 18 3 3 5 9 10 13 10 3 0 1 -5 -5 -11z m32 -9 c-3 -5 -11 -10 -16 -10
-6 0 -7 5 -4 10 3 6 11 10 16 10 6 0 7 -4 4 -10z m1597 -15 c-2 -10 1 -14 7
-10 7 4 8 -2 2 -17 -4 -13 -12 -22 -17 -21 -5 1 -17 -5 -26 -14 -13 -11 -21
-12 -35 -3 -16 10 -15 10 5 5 23 -7 23 -6 7 19 -16 24 -16 25 4 21 12 -2 25
-6 30 -10 5 -3 12 -1 16 5 3 5 -2 10 -11 10 -16 0 -16 1 2 16 18 14 18 15 -6
9 -19 -5 -22 -4 -10 4 20 14 36 8 32 -14z m-1379 -86 c-8 -8 -13 -7 -18 2 -5
8 -4 10 3 5 7 -4 12 -2 12 5 0 7 3 9 7 6 4 -4 2 -12 -4 -18z m118 -2 c-10 -9
-11 -8 -5 6 3 10 9 15 12 12 3 -3 0 -11 -7 -18z m343 7 c3 -8 2 -12 -4 -9 -6
3 -10 10 -10 16 0 14 7 11 14 -7z m137 -7 c-10 -9 -11 -8 -5 6 3 10 9 15 12
12 3 -3 0 -11 -7 -18z m343 7 c3 -8 2 -12 -4 -9 -6 3 -10 10 -10 16 0 14 7 11
14 -7z m137 -7 c-10 -9 -11 -8 -5 6 3 10 9 15 12 12 3 -3 0 -11 -7 -18z m99
19 c0 -2 -9 -6 -20 -9 -11 -3 -18 -1 -14 4 5 9 34 13 34 5z m-920 -21 c0 -1
-6 -8 -14 -14 -11 -9 -16 -9 -22 0 -5 8 -3 9 6 4 10 -6 12 -4 7 8 -4 11 -2 14
9 10 7 -3 14 -6 14 -8z m83 -2 c-5 -12 -3 -14 7 -8 9 5 11 4 6 -4 -6 -9 -11
-9 -22 0 -12 10 -12 14 -2 20 18 12 18 11 11 -8z m397 2 c0 -1 -6 -8 -14 -14
-11 -9 -16 -9 -22 0 -5 8 -3 9 6 4 10 -6 12 -4 7 8 -4 11 -2 14 9 10 7 -3 14
-6 14 -8z m83 -2 c-5 -12 -3 -14 7 -8 9 5 11 4 6 -4 -6 -9 -11 -9 -22 0 -12
10 -12 14 -2 20 18 12 18 11 11 -8z m413 5 c4 -7 3 -8 -4 -4 -7 4 -12 2 -12
-4 0 -6 -5 -8 -11 -4 -8 4 -7 9 2 15 18 11 17 11 25 -3z m74 5 c0 -5 -5 -15
-10 -23 -7 -12 -9 -10 -7 8 1 19 17 33 17 15z m-1450 -7 c0 -3 -4 -8 -10 -11
-5 -3 -10 -1 -10 4 0 6 5 11 10 11 6 0 10 -2 10 -4z m240 -15 c0 -13 -29 -8
-34 5 -3 7 2 10 15 7 10 -3 19 -9 19 -12z m420 14 c0 -2 -9 -9 -20 -15 -12 -6
-20 -7 -20 -1 0 5 8 12 18 14 9 3 18 5 20 6 1 0 2 -1 2 -4z m60 -14 c0 -13
-29 -8 -34 5 -3 7 2 10 15 7 10 -3 19 -9 19 -12z m420 14 c0 -2 -9 -9 -20 -15
-12 -6 -20 -7 -20 -1 0 5 8 12 18 14 9 3 18 5 20 6 1 0 2 -1 2 -4z m60 -17 c0
-5 -9 -4 -20 2 -11 6 -20 12 -20 14 0 2 9 2 20 -1 11 -3 20 -9 20 -15z m220
18 c0 -2 -7 -7 -16 -10 -8 -3 -12 -2 -9 4 6 10 25 14 25 6z m-1300 -16 c0 -5
-2 -10 -4 -10 -3 0 -8 5 -11 10 -3 6 -1 10 4 10 6 0 11 -4 11 -10z m63 -5 c-3
-9 -8 -14 -10 -11 -3 3 -2 9 2 15 9 16 15 13 8 -4z m146 6 c10 -7 7 -9 -12 -8
-14 1 -23 5 -20 10 6 9 15 9 32 -2z m239 1 c8 -6 2 -9 -18 -9 -20 0 -26 3 -18
9 7 4 15 8 18 8 3 0 11 -4 18 -8z m241 -1 c10 -7 7 -9 -12 -8 -14 1 -23 5 -20
10 6 9 15 9 32 -2z m239 1 c8 -6 2 -9 -18 -9 -20 0 -26 3 -18 9 7 4 15 8 18 8
3 0 11 -4 18 -8z m240 0 c8 -6 2 -9 -18 -9 -20 0 -26 3 -18 9 7 4 15 8 18 8 3
0 11 -4 18 -8z m-1248 -16 c-7 -7 -13 -7 -20 0 -6 6 -3 10 10 10 13 0 16 -4
10 -10z m-40 -5 c0 -13 -28 -22 -35 -11 -3 4 1 11 7 13 20 8 28 8 28 -2z m111
-5 c5 3 9 -2 9 -10 0 -9 -4 -16 -10 -16 -5 0 -10 2 -10 4 0 2 -2 10 -3 18 -2
7 -2 10 0 5 3 -4 9 -5 14 -1z m73 -3 c11 14 13 14 24 -4 7 -11 8 -19 2 -19 -5
0 -10 5 -10 11 0 8 -4 8 -14 0 -11 -9 -16 -9 -21 0 -6 8 -10 7 -16 -2 -7 -11
-9 -11 -9 2 0 24 13 31 23 13 9 -16 11 -16 21 -1z m1166 -19 c0 -8 -19 -13
-24 -6 -3 5 1 9 9 9 8 0 15 -2 15 -3z"/>
<path d="M899 2473 c-13 -16 -12 -17 4 -4 9 7 17 15 17 17 0 8 -8 3 -21 -13z"/>
<path d="M1487 2479 c7 -7 15 -10 18 -7 3 3 -2 9 -12 12 -14 6 -15 5 -6 -5z"/>
<path d="M1556 2481 c-4 -5 -2 -12 3 -15 5 -4 12 -2 15 3 4 5 2 12 -3 15 -5 4
-12 2 -15 -3z"/>
<path d="M1569 1108 c0 -2 -2 -11 -4 -21 -3 -15 -1 -16 11 -6 7 6 11 15 8 20
-5 9 -13 12 -15 7z"/>
<path d="M774 1188 l-19 -23 23 19 c21 18 27 26 19 26 -2 0 -12 -10 -23 -22z"/>
<path d="M1920 230 c0 -13 18 -22 24 -11 3 5 -1 11 -9 15 -8 3 -15 1 -15 -4z"/>
<path d="M1312 2536 c4 -5 2 -16 -5 -25 -10 -14 -10 -14 5 -3 13 10 17 10 20
0 3 -7 7 -5 12 7 4 11 4 16 0 12 -4 -4 -14 -1 -23 5 -9 7 -13 8 -9 4z"/>
<path d="M975 2520 c-3 -5 -1 -10 4 -10 6 0 11 5 11 10 0 6 -2 10 -4 10 -3 0
-8 -4 -11 -10z"/>
<path d="M1438 2512 c-15 -21 -35 -22 -47 -3 -6 9 -8 4 -8 -17 2 -28 3 -29 18
-16 11 10 19 12 24 5 10 -17 28 -13 21 5 -4 9 -1 23 5 30 6 8 9 14 6 14 -3 0
-12 -8 -19 -18z"/>
<path d="M1510 2519 c0 -5 5 -7 10 -4 6 3 10 8 10 11 0 2 -4 4 -10 4 -5 0 -10
-5 -10 -11z"/>
<path d="M2096 2519 c3 -5 10 -7 15 -4 13 9 11 -9 -3 -25 -11 -12 -10 -12 5
-1 21 16 18 33 -6 37 -9 1 -15 -2 -11 -7z"/>
<path d="M1342 2490 c-12 -19 -11 -20 8 -8 20 13 27 28 12 28 -4 0 -13 -9 -20
-20z"/>
<path d="M2036 2493 c-6 -14 -5 -15 5 -6 7 7 10 15 7 18 -3 3 -9 -2 -12 -12z"/>
<path d="M2193 2490 c-1 -11 2 -20 7 -20 4 0 7 7 6 15 -3 23 -12 26 -13 5z"/>
<path d="M2125 2481 c-6 -11 9 -23 19 -14 9 9 7 23 -3 23 -6 0 -12 -4 -16 -9z"/>
<path d="M698 2474 c-4 -3 -14 -7 -23 -8 -9 -1 -21 -9 -26 -17 -8 -12 -10 -12
-20 1 -9 13 -10 13 -6 0 2 -8 13 -15 24 -16 14 -1 19 4 16 12 -5 13 25 13 46
0 5 -3 14 1 20 8 9 11 9 16 0 22 -8 4 -9 3 -5 -4 4 -7 1 -12 -9 -12 -9 0 -13
5 -10 10 7 11 2 14 -7 4z"/>
<path d="M2260 2315 c-10 -12 -8 -13 10 -10 29 6 34 11 16 18 -8 3 -20 0 -26
-8z"/>
<path d="M2293 2293 c-17 -6 -17 -20 0 -20 8 0 14 6 14 14 0 7 -1 13 -1 12 -1
0 -7 -3 -13 -6z"/>
<path d="M540 2280 c0 -5 5 -10 11 -10 5 0 7 5 4 10 -3 6 -8 10 -11 10 -2 0
-4 -4 -4 -10z"/>
<path d="M570 2259 c0 -5 -4 -7 -10 -4 -6 4 -7 -1 -3 -11 4 -12 8 -14 11 -6 3
10 7 10 20 0 15 -11 15 -11 5 3 -7 9 -10 19 -6 22 3 4 1 7 -5 7 -7 0 -12 -5
-12 -11z"/>
<path d="M535 2229 c-4 -6 -5 -12 -2 -15 2 -3 7 2 10 11 7 17 1 20 -8 4z"/>
<path d="M2275 2160 c3 -5 8 -10 11 -10 2 0 4 5 4 10 0 6 -5 10 -11 10 -5 0
-7 -4 -4 -10z"/>
<path d="M515 2141 c-3 -5 -2 -12 3 -15 5 -3 9 1 9 9 0 17 -3 19 -12 6z"/>
<path d="M2277 2133 c-10 -9 -9 -23 1 -23 5 0 9 7 9 15 0 17 -1 18 -10 8z"/>
<path d="M517 2103 c-5 -9 10 -53 17 -53 3 0 1 11 -4 24 -5 13 -6 27 -3 30 4
3 4 6 0 6 -3 0 -8 -3 -10 -7z"/>
<path d="M2276 2073 c-6 -14 -5 -15 5 -6 7 7 10 15 7 18 -3 3 -9 -2 -12 -12z"/>
<path d="M2237 2025 c-4 -10 -3 -23 3 -29 8 -8 9 -6 4 8 -5 13 -4 17 4 12 6
-3 14 -1 18 5 4 7 3 9 -4 5 -5 -3 -12 -1 -14 6 -3 7 -7 4 -11 -7z"/>
<path d="M526 1998 c3 -5 10 -6 15 -3 13 9 11 12 -6 12 -8 0 -12 -4 -9 -9z"/>
<path d="M2183 1984 c3 -6 -3 -18 -14 -28 -12 -10 -18 -20 -15 -23 3 -3 14 5
25 18 22 26 27 20 10 -14 -10 -21 -10 -21 5 -3 20 25 20 30 -1 47 -9 8 -14 9
-10 3z"/>
<path d="M2226 1958 c3 -5 10 -6 15 -3 13 9 11 12 -6 12 -8 0 -12 -4 -9 -9z"/>
<path d="M2207 1927 c-3 -8 1 -14 8 -14 7 0 11 6 8 14 -3 7 -6 13 -8 13 -2 0
-5 -6 -8 -13z"/>
<path d="M2149 1913 c-1 -5 -1 -11 0 -15 0 -5 -3 -8 -8 -8 -5 0 -12 -7 -15
-16 -3 -9 -2 -12 5 -9 5 4 18 1 27 -6 14 -11 15 -11 5 1 -18 19 -16 35 1 21
11 -9 16 -9 22 0 4 7 3 9 -3 6 -6 -4 -17 1 -24 10 -12 14 -11 15 11 9 19 -6
21 -5 10 3 -18 13 -30 14 -31 4z"/>
<path d="M985 1890 c-4 -6 1 -22 9 -35 20 -30 23 -31 23 -7 0 25 -23 56 -32
42z m23 -35 c-3 -3 -9 2 -12 12 -6 14 -5 15 5 6 7 -7 10 -15 7 -18z"/>
<path d="M606 1878 c3 -5 10 -6 15 -3 13 9 11 12 -6 12 -8 0 -12 -4 -9 -9z"/>
<path d="M1094 1869 c-4 -7 -3 -9 4 -5 5 3 13 0 15 -6 4 -9 6 -10 6 -1 1 17
-16 25 -25 12z"/>
<path d="M653 1849 c-2 -23 3 -25 10 -4 4 8 3 16 -1 19 -4 3 -9 -4 -9 -15z"/>
<path d="M686 1843 c-6 -14 -5 -15 5 -6 7 7 10 15 7 18 -3 3 -9 -2 -12 -12z"/>
<path d="M739 1853 c0 -5 -2 -16 -4 -26 -2 -11 -1 -16 3 -13 8 8 14 46 7 46
-3 0 -5 -3 -6 -7z"/>
<path d="M876 1842 c-3 -5 1 -9 9 -9 8 0 12 4 9 9 -3 4 -7 8 -9 8 -2 0 -6 -4
-9 -8z"/>
<path d="M2116 1838 c3 -4 11 -5 19 -1 21 7 19 12 -4 10 -11 0 -18 -5 -15 -9z"/>
<path d="M980 1820 c-12 -7 -10 -9 7 -7 12 0 19 5 17 9 -6 10 -6 10 -24 -2z"/>
<path d="M2136 1822 c-3 -5 1 -9 9 -9 8 0 12 4 9 9 -3 4 -7 8 -9 8 -2 0 -6 -4
-9 -8z"/>
<path d="M890 1816 c0 -2 8 -10 18 -17 15 -13 16 -12 3 4 -13 16 -21 21 -21
13z"/>
<path d="M1091 1804 c0 -11 3 -14 6 -6 3 7 2 16 -1 19 -3 4 -6 -2 -5 -13z"/>
<path d="M2076 1795 c-3 -8 -1 -15 4 -15 6 0 10 7 10 15 0 8 -2 15 -4 15 -2 0
-6 -7 -10 -15z"/>
<path d="M1070 1764 c0 -20 27 -37 36 -23 4 7 3 9 -4 5 -6 -3 -15 2 -21 11 -6
10 -11 13 -11 7z"/>
<path d="M2066 1753 c-4 -9 -4 -18 -1 -21 3 -3 5 0 5 7 0 9 5 9 20 1 25 -13
25 -9 1 12 -18 15 -20 15 -25 1z"/>
<path d="M1110 1720 c0 -5 5 -10 11 -10 5 0 7 5 4 10 -3 6 -8 10 -11 10 -2 0
-4 -4 -4 -10z"/>
<path d="M1990 1695 c-11 -13 -10 -14 4 -9 9 3 16 10 16 15 0 13 -6 11 -20 -6z"/>
<path d="M2066 1702 c-3 -5 1 -9 9 -9 8 0 15 4 15 9 0 4 -4 8 -9 8 -6 0 -12
-4 -15 -8z"/>
<path d="M996 1596 c6 -16 4 -18 -12 -12 -15 6 -17 5 -6 -5 9 -10 15 -10 24
-1 9 9 9 15 -1 25 -10 10 -11 8 -5 -7z"/>
<path d="M1973 1595 c0 -8 4 -12 9 -9 4 3 8 9 8 15 0 5 -4 9 -8 9 -5 0 -9 -7
-9 -15z"/>
<path d="M1941 1573 c-1 -17 16 -25 25 -12 4 7 3 9 -4 5 -5 -3 -13 0 -15 6 -4
9 -6 10 -6 1z"/>
<path d="M990 1529 c0 -5 -6 -7 -12 -3 -10 5 -10 4 -1 -6 6 -7 9 -20 6 -29 -3
-9 4 -5 15 9 20 24 20 40 1 40 -5 0 -9 -5 -9 -11z"/>
<path d="M952 1506 c7 -8 15 -12 17 -11 5 6 -10 25 -20 25 -5 0 -4 -6 3 -14z"/>
<path d="M895 1460 c-3 -5 -1 -10 4 -10 6 0 11 5 11 10 0 6 -2 10 -4 10 -3 0
-8 -4 -11 -10z"/>
<path d="M865 1400 c-3 -5 -1 -10 4 -10 6 0 11 5 11 10 0 6 -2 10 -4 10 -3 0
-8 -4 -11 -10z"/>
<path d="M1773 1388 c-10 -12 -14 -53 -5 -44 2 3 15 1 28 -4 15 -6 26 -5 30 2
4 6 3 9 -2 6 -5 -3 -19 -2 -32 3 -19 7 -21 12 -12 29 12 22 8 27 -7 8z"/>
<path d="M1770 1320 c0 -5 5 -10 10 -10 6 0 10 5 10 10 0 6 -4 10 -10 10 -5 0
-10 -4 -10 -10z"/>
<path d="M1696 1198 c3 -5 10 -6 15 -3 13 9 11 12 -6 12 -8 0 -12 -4 -9 -9z"/>
<path d="M639 1133 c-12 -16 -12 -17 2 -6 9 7 20 9 24 5 5 -4 5 -1 1 6 -9 16
-11 15 -27 -5z"/>
<path d="M1577 995 c-4 -8 -3 -16 1 -19 4 -3 9 4 9 15 2 23 -3 25 -10 4z"/>
<path d="M1516 922 c-3 -5 1 -9 9 -9 8 0 12 4 9 9 -3 4 -7 8 -9 8 -2 0 -6 -4
-9 -8z"/>
<path d="M555 880 c-3 -5 -1 -10 4 -10 6 0 11 5 11 10 0 6 -2 10 -4 10 -3 0
-8 -4 -11 -10z"/>
<path d="M474 858 c-4 -7 -4 -10 1 -6 4 4 15 2 24 -5 14 -11 14 -10 2 6 -16
20 -18 21 -27 5z"/>
<path d="M1470 820 c-13 -8 -12 -10 3 -10 9 0 17 5 17 10 0 12 -1 12 -20 0z"/>
<path d="M470 810 c-13 -8 -13 -10 2 -10 12 0 15 -5 11 -16 -5 -13 -7 -13 -14
-2 -7 10 -9 10 -10 -2 -1 -8 -1 -18 0 -22 0 -5 -9 -9 -21 -9 -17 -1 -19 -2 -5
-6 19 -5 22 -18 7 -28 -5 -3 -10 -1 -10 4 0 6 -5 11 -11 11 -5 0 -8 -4 -4 -9
3 -5 1 -12 -5 -16 -6 -4 -7 -11 -4 -17 4 -6 -1 -8 -14 -4 -11 4 -23 2 -28 -5
-4 -7 -2 -10 7 -7 8 3 23 1 34 -5 11 -5 17 -6 12 -2 -4 5 7 24 25 42 17 18 28
33 24 33 -4 0 2 12 13 26 11 14 17 32 14 40 -6 17 -4 16 -23 4z"/>
<path d="M1427 797 c-6 -15 27 -17 40 -2 5 4 2 5 -4 1 -7 -4 -13 -2 -13 3 0
15 -17 14 -23 -2z"/>
<path d="M1505 799 c-4 -6 -5 -12 -2 -15 2 -3 7 2 10 11 7 17 1 20 -8 4z"/>
<path d="M1566 802 c-3 -5 1 -9 9 -9 8 0 12 4 9 9 -3 4 -7 8 -9 8 -2 0 -6 -4
-9 -8z"/>
<path d="M1786 802 c-3 -5 1 -9 9 -9 8 0 12 4 9 9 -3 4 -7 8 -9 8 -2 0 -6 -4
-9 -8z"/>
<path d="M436 783 c-6 -14 -5 -15 5 -6 7 7 10 15 7 18 -3 3 -9 -2 -12 -12z"/>
<path d="M1650 779 c0 -5 5 -7 10 -4 6 3 10 8 10 11 0 2 -4 4 -10 4 -5 0 -10
-5 -10 -11z"/>
<path d="M1986 782 c-3 -5 1 -9 9 -9 8 0 12 4 9 9 -3 4 -7 8 -9 8 -2 0 -6 -4
-9 -8z"/>
<path d="M1691 772 c3 -19 -2 -26 -10 -13 -5 8 -11 9 -15 3 -9 -16 18 -21 37
-7 15 11 16 13 2 18 -8 4 -14 3 -14 -1z"/>
<path d="M2036 762 c-3 -5 1 -9 9 -9 8 0 12 4 9 9 -3 4 -7 8 -9 8 -2 0 -6 -4
-9 -8z"/>
<path d="M1995 750 c3 -5 8 -10 11 -10 2 0 4 5 4 10 0 6 -5 10 -11 10 -5 0 -7
-4 -4 -10z"/>
<path d="M2139 623 c0 -5 -2 -16 -4 -26 -2 -11 -1 -16 3 -13 8 8 14 46 7 46
-3 0 -5 -3 -6 -7z"/>
<path d="M276 562 c-3 -5 1 -9 9 -9 8 0 12 4 9 9 -3 4 -7 8 -9 8 -2 0 -6 -4
-9 -8z"/>
<path d="M314 538 c3 -10 9 -25 12 -33 5 -11 2 -13 -10 -9 -9 3 -16 4 -16 1 0
-3 7 -7 15 -11 21 -8 39 29 26 52 -8 13 -10 14 -11 2 0 -13 -2 -13 -11 0 -9
13 -10 12 -5 -2z"/>
<path d="M2135 540 c-3 -5 -1 -10 4 -10 6 0 11 5 11 10 0 6 -2 10 -4 10 -3 0
-8 -4 -11 -10z"/>
<path d="M287 519 c7 -7 15 -10 18 -7 3 3 -2 9 -12 12 -14 6 -15 5 -6 -5z"/>
<path d="M2099 525 c-1 -3 -2 -9 -3 -15 0 -5 -10 -16 -21 -24 -12 -9 -15 -15
-7 -16 8 0 10 -5 6 -12 -4 -7 7 -2 24 11 18 12 32 25 32 29 0 3 -5 1 -12 -6
-19 -19 -33 -14 -15 6 10 10 17 22 17 25 0 8 -19 10 -21 2z"/>
<path d="M275 480 c3 -5 8 -10 11 -10 2 0 4 5 4 10 0 6 -5 10 -11 10 -5 0 -7
-4 -4 -10z"/>
<path d="M2042 401 c-3 -9 -14 -29 -25 -44 l-20 -29 24 14 c32 18 37 26 32 52
-3 15 -2 17 5 8 8 -11 10 -11 15 0 3 9 -1 15 -10 15 -8 0 -17 -7 -21 -16z"/>
<path d="M2055 340 c-3 -6 1 -7 9 -4 18 7 21 14 7 14 -6 0 -13 -4 -16 -10z"/>
<path d="M236 307 c3 -10 9 -15 12 -12 3 3 0 11 -7 18 -10 9 -11 8 -5 -6z"/>
<path d="M273 305 c0 -8 4 -15 9 -15 4 0 8 4 8 9 0 6 -4 12 -8 15 -5 3 -9 -1
-9 -9z"/>
<path d="M2031 287 c-8 -10 -7 -14 2 -14 8 0 14 6 14 14 0 7 -1 13 -2 13 -2 0
-8 -6 -14 -13z"/>
<path d="M1986 202 c-2 -4 4 -8 14 -8 10 0 16 4 14 8 -3 4 -9 8 -14 8 -5 0
-11 -4 -14 -8z"/>
<path d="M1945 179 c-11 -16 -1 -19 13 -3 7 8 8 14 3 14 -5 0 -13 -5 -16 -11z"/>
<path d="M313 155 c0 -8 4 -12 9 -9 5 3 6 10 3 15 -9 13 -12 11 -12 -6z"/>
<path d="M367 127 c-3 -8 1 -14 8 -14 7 0 11 6 8 14 -3 7 -6 13 -8 13 -2 0 -5
-6 -8 -13z"/>
<path d="M690 120 c-7 -13 -7 -21 2 -26 6 -4 8 -3 5 3 -4 6 -1 13 7 16 15 6
16 -9 3 -30 -5 -9 -3 -11 6 -7 18 7 19 51 1 58 -8 3 -18 -3 -24 -14z"/>
<path d="M929 121 c-20 -16 -22 -22 -11 -33 11 -11 12 -10 6 7 -7 18 -6 19 9
6 10 -8 20 -11 24 -8 3 4 -2 9 -11 13 -15 6 -15 7 1 20 10 7 15 14 12 14 -4 0
-17 -9 -30 -19z"/>
<path d="M1035 130 c-3 -5 -2 -10 4 -10 5 0 13 5 16 10 3 6 2 10 -4 10 -5 0
-13 -4 -16 -10z"/>
<path d="M1170 120 c-7 -13 -7 -21 2 -26 6 -4 8 -3 5 3 -4 6 -1 13 7 16 15 6
16 -9 3 -30 -5 -9 -3 -11 6 -7 18 7 19 51 1 58 -8 3 -18 -3 -24 -14z"/>
<path d="M1410 121 c-21 -16 -23 -22 -12 -33 11 -11 12 -10 6 7 -6 16 -5 18 7
8 7 -7 18 -13 24 -13 5 0 1 7 -9 15 -11 8 -15 15 -8 15 6 0 21 -10 32 -22 12
-13 19 -16 16 -8 -5 11 1 15 20 17 19 1 23 -2 15 -10 -6 -6 -11 -16 -11 -21 0
-6 5 -4 10 5 12 21 57 16 75 -8 13 -17 13 -17 12 2 -2 24 21 27 48 6 15 -12
13 -8 -5 14 -40 48 -43 51 -37 33 3 -9 -1 -22 -10 -30 -14 -11 -15 -10 -9 12
5 19 5 21 -3 9 -8 -13 -27 -16 -60 -10 -3 1 4 8 15 16 10 8 14 15 7 15 -6 0
-15 -5 -18 -11 -4 -6 -14 -8 -22 -5 -8 3 -11 1 -8 -4 3 -6 2 -10 -4 -10 -5 0
-12 6 -14 13 -4 8 -6 8 -6 -2 -1 -11 -4 -11 -14 3 -12 17 -14 17 -37 -3z"/>
<path d="M1650 121 c-7 -14 -7 -22 2 -27 7 -5 8 -3 3 6 -5 8 -3 11 6 8 8 -3
12 -14 11 -24 -3 -15 -1 -16 9 -7 10 10 10 15 -1 28 -7 8 -8 15 -2 15 16 0 34
-28 26 -41 -5 -8 -3 -9 5 -5 7 5 10 14 7 22 -3 8 -1 14 4 14 6 0 10 -5 10 -12
0 -6 2 -9 5 -6 11 11 -7 36 -23 33 -9 -1 -25 2 -34 6 -13 7 -20 4 -28 -10z"/>
<path d="M1830 105 c0 -5 5 -17 10 -25 5 -8 10 -10 10 -5 0 6 -5 17 -10 25 -5
8 -10 11 -10 5z"/>
<path d="M1890 99 c0 -5 5 -7 10 -4 6 3 10 8 10 11 0 2 -4 4 -10 4 -5 0 -10
-5 -10 -11z"/>
<path d="M1742 80 c-7 -13 -8 -21 -2 -25 6 -4 9 -1 8 7 -2 7 3 12 10 11 13 -3
17 13 4 21 -4 2 -13 -4 -20 -14z"/>
<path d="M450 86 c0 -2 7 -7 16 -10 8 -3 12 -2 9 4 -6 10 -25 14 -25 6z"/>
<path d="M870 81 c0 -6 4 -13 10 -16 6 -3 7 1 4 9 -7 18 -14 21 -14 7z"/>
<path d="M1350 81 c0 -6 4 -13 10 -16 6 -3 7 1 4 9 -7 18 -14 21 -14 7z"/>
<path d="M485 60 c-3 -6 1 -7 9 -4 18 7 21 14 7 14 -6 0 -13 -4 -16 -10z"/>
<path d="M586 58 c3 -5 10 -6 15 -3 13 9 11 12 -6 12 -8 0 -12 -4 -9 -9z"/>
<path d="M826 58 c3 -5 10 -6 15 -3 13 9 11 12 -6 12 -8 0 -12 -4 -9 -9z"/>
<path d="M1306 58 c3 -5 10 -6 15 -3 13 9 11 12 -6 12 -8 0 -12 -4 -9 -9z"/>
</g>
</svg>
